<svg width="1928" height="1088" viewBox="0 0 1928 1088" fill="none" xmlns="http://www.w3.org/2000/svg">
<g clip-path="url(#clip0_13_2)" filter="url(#filter0_d_13_2)">
<rect width="1920" height="1080" transform="translate(4)" fill="#FFFDF0"/>
<g clip-path="url(#clip1_13_2)">
<path d="M1610.52 648.762C1611.53 648.607 1612.56 648.69 1613.54 649.005C1614.51 649.319 1615.4 649.857 1616.13 650.576L1622.51 656.844C1628.56 662.785 1633.26 669.954 1636.3 677.868C1639.35 685.781 1640.65 694.255 1640.14 702.718L1637.34 748.965C1636.94 755.547 1637.96 762.139 1640.33 768.294C1642.69 774.45 1646.35 780.026 1651.06 784.646L1657.43 790.911C1658.05 791.517 1658.54 792.239 1658.88 793.035C1659.22 793.832 1659.4 794.687 1659.4 795.552C1659.41 796.417 1659.25 797.276 1658.93 798.078C1658.6 798.88 1658.12 799.611 1657.52 800.228C1656.91 800.845 1656.19 801.337 1655.39 801.675C1654.59 802.013 1653.74 802.191 1652.87 802.198C1652.01 802.206 1651.15 802.043 1650.35 801.719C1649.55 801.395 1648.82 800.916 1648.2 800.31L1641.82 794.043C1635.77 788.103 1631.07 780.934 1628.03 773.02C1624.98 765.106 1623.68 756.632 1624.19 748.17L1626.98 701.923C1627.38 695.34 1626.37 688.749 1624 682.594C1621.64 676.438 1617.98 670.862 1613.27 666.242L1606.9 659.975C1606.02 659.118 1605.41 658.035 1605.12 656.847C1604.82 655.659 1604.87 654.414 1605.24 653.25C1605.62 652.086 1606.31 651.05 1607.24 650.257C1608.18 649.465 1609.31 648.947 1610.52 648.762Z" fill="#D7D7D7"/>
<path d="M1643.09 643.817C1644.1 643.661 1645.13 643.744 1646.11 644.059C1647.08 644.374 1647.97 644.912 1648.7 645.63L1655.08 651.898C1661.13 657.839 1665.83 665.008 1668.87 672.922C1671.91 680.836 1673.22 689.309 1672.71 697.772L1669.91 744.019C1669.51 750.602 1670.53 757.193 1672.9 763.348C1675.26 769.504 1678.92 775.08 1683.63 779.7L1690 785.965C1690.62 786.571 1691.11 787.293 1691.45 788.09C1691.79 788.886 1691.97 789.741 1691.97 790.607C1691.98 791.472 1691.82 792.33 1691.49 793.132C1691.17 793.934 1690.69 794.665 1690.08 795.282C1689.48 795.899 1688.76 796.391 1687.96 796.729C1687.16 797.067 1686.31 797.245 1685.44 797.253C1684.58 797.26 1683.72 797.098 1682.92 796.773C1682.12 796.449 1681.38 795.971 1680.77 795.364L1674.39 789.098C1668.34 783.157 1663.64 775.988 1660.59 768.074C1657.55 760.161 1656.24 751.687 1656.76 743.224L1659.55 696.977C1659.95 690.395 1658.94 683.803 1656.57 677.648C1654.21 671.492 1650.55 665.916 1645.84 661.296L1639.47 655.029C1638.59 654.172 1637.98 653.089 1637.68 651.901C1637.39 650.714 1637.44 649.468 1637.81 648.304C1638.19 647.141 1638.88 646.104 1639.81 645.312C1640.74 644.519 1641.88 644.002 1643.09 643.817Z" fill="#D7D7D7"/>
<path d="M1675.66 638.871C1676.67 638.716 1677.7 638.798 1678.68 639.113C1679.65 639.428 1680.54 639.966 1681.27 640.684L1687.65 646.953C1693.7 652.894 1698.4 660.063 1701.44 667.976C1704.48 675.89 1705.79 684.364 1705.28 692.826L1702.48 739.074C1702.08 745.656 1703.1 752.247 1705.46 758.403C1707.83 764.558 1711.49 770.134 1716.19 774.755L1722.57 781.019C1723.19 781.626 1723.68 782.348 1724.02 783.144C1724.36 783.941 1724.53 784.796 1724.54 785.661C1724.55 786.526 1724.39 787.384 1724.06 788.187C1723.74 788.989 1723.26 789.719 1722.65 790.336C1722.05 790.954 1721.32 791.445 1720.53 791.783C1719.73 792.122 1718.88 792.299 1718.01 792.307C1717.15 792.315 1716.29 792.152 1715.49 791.828C1714.68 791.504 1713.95 791.025 1713.34 790.418L1706.96 784.152C1700.91 778.211 1696.2 771.042 1693.16 763.129C1690.12 755.215 1688.81 746.741 1689.33 738.279L1692.12 692.031C1692.52 685.449 1691.51 678.858 1689.14 672.702C1686.77 666.547 1683.12 660.971 1678.41 656.35L1672.03 650.083C1671.16 649.226 1670.55 648.143 1670.25 646.956C1669.96 645.768 1670.01 644.522 1670.38 643.359C1670.76 642.195 1671.45 641.159 1672.38 640.366C1673.31 639.574 1674.45 639.056 1675.66 638.871Z" fill="#D7D7D7"/>
<path d="M1708.22 633.925C1709.24 633.77 1710.27 633.853 1711.25 634.168C1712.22 634.483 1713.11 635.021 1713.84 635.739L1720.22 642.007C1726.26 647.948 1730.97 655.117 1734.01 663.031C1737.05 670.944 1738.36 679.418 1737.85 687.881L1735.05 734.128C1734.65 740.71 1735.67 747.301 1738.03 753.457C1740.4 759.612 1744.06 765.188 1748.76 769.808L1755.14 776.074C1756.39 777.298 1757.1 778.968 1757.11 780.715C1757.13 782.463 1756.45 784.144 1755.22 785.391C1754 786.637 1752.33 787.346 1750.58 787.361C1748.83 787.377 1747.15 786.698 1745.9 785.473L1739.53 779.207C1733.48 773.266 1728.77 766.097 1725.73 758.183C1722.69 750.269 1721.38 741.796 1721.89 733.333L1724.69 687.086C1725.09 680.503 1724.07 673.912 1721.71 667.757C1719.34 661.601 1715.68 656.025 1710.98 651.405L1704.6 645.138C1703.73 644.281 1703.11 643.198 1702.82 642.01C1702.53 640.822 1702.58 639.577 1702.95 638.413C1703.33 637.249 1704.02 636.213 1704.95 635.421C1705.88 634.628 1707.02 634.11 1708.22 633.925Z" fill="#D7D7D7"/>
<path d="M1740.79 628.98C1741.81 628.824 1742.84 628.907 1743.81 629.222C1744.79 629.536 1745.68 630.075 1746.41 630.793L1752.79 637.061C1758.83 643.003 1763.54 650.172 1766.58 658.085C1769.62 665.999 1770.93 674.473 1770.41 682.935L1767.62 729.183C1767.22 735.765 1768.24 742.356 1770.6 748.511C1772.97 754.667 1776.63 760.243 1781.33 764.863L1787.71 771.128C1788.33 771.735 1788.82 772.457 1789.16 773.253C1789.49 774.049 1789.67 774.904 1789.68 775.77C1789.69 776.635 1789.52 777.493 1789.2 778.295C1788.88 779.097 1788.4 779.828 1787.79 780.445C1787.18 781.062 1786.46 781.554 1785.67 781.892C1784.87 782.23 1784.01 782.408 1783.15 782.416C1782.28 782.423 1781.43 782.261 1780.62 781.937C1779.82 781.612 1779.09 781.134 1778.47 780.527L1772.09 774.261C1766.05 768.32 1761.34 761.151 1758.3 753.237C1755.26 745.324 1753.95 736.85 1754.46 728.387L1757.26 682.14C1757.66 675.558 1756.64 668.967 1754.28 662.811C1751.91 656.656 1748.25 651.08 1743.55 646.459L1737.17 640.192C1736.3 639.335 1735.68 638.252 1735.39 637.064C1735.1 635.877 1735.14 634.631 1735.52 633.467C1735.9 632.304 1736.59 631.267 1737.52 630.475C1738.45 629.682 1739.58 629.165 1740.79 628.98Z" fill="#D7D7D7"/>
</g>
<g clip-path="url(#clip2_13_2)">
<path d="M1866.15 764.951L1822.37 729.634C1818.14 726.207 1813.04 724.027 1807.65 723.339C1802.25 722.651 1796.76 723.483 1791.81 725.741L1622.06 803.251C1617.11 805.514 1612.89 809.113 1609.87 813.642C1606.86 818.172 1605.16 823.453 1604.99 828.892L1603 885.105C1602.9 887.596 1603.45 890.071 1604.58 892.293C1605.71 894.516 1607.38 896.412 1609.45 897.804C1611.52 899.195 1613.91 900.034 1616.4 900.241C1618.88 900.449 1621.38 900.018 1623.65 898.989L1863.12 789.648C1865.38 788.606 1867.34 787.002 1868.81 784.989C1870.28 782.975 1871.21 780.62 1871.52 778.145C1871.82 775.671 1871.49 773.16 1870.55 770.85C1869.61 768.541 1868.09 766.511 1866.15 764.951Z" fill="#D6B5B0"/>
<path d="M1866.15 764.951L1822.37 729.634C1818.14 726.207 1813.04 724.027 1807.65 723.339C1802.25 722.651 1796.76 723.483 1791.81 725.741L1622.06 803.251C1617.11 805.514 1612.89 809.113 1609.87 813.642C1606.86 818.172 1605.16 823.453 1604.99 828.892L1604.81 832.027C1607.68 827.714 1611.64 824.241 1616.29 821.961L1786.85 744.086C1791.8 741.829 1797.28 740.997 1802.68 741.685C1808.08 742.373 1813.18 744.553 1817.4 747.98L1861.18 783.297C1862.88 784.664 1864.23 786.417 1865.12 788.41C1866.86 787.269 1868.33 785.771 1869.44 784.016C1870.55 782.261 1871.28 780.289 1871.57 778.232C1871.88 775.739 1871.55 773.208 1870.6 770.881C1869.65 768.555 1868.12 766.513 1866.15 764.951Z" fill="#BF9E99"/>
<path d="M1873.62 822.153C1871.77 821.382 1869.78 821 1867.77 821.03C1865.77 821.061 1863.79 821.503 1861.96 822.33L1649.1 919.522C1647.28 920.361 1645.65 921.565 1644.31 923.061C1642.98 924.556 1641.96 926.31 1641.33 928.214C1640.68 930.136 1640.43 932.174 1640.61 934.197C1640.78 936.22 1641.38 938.185 1642.36 939.965L1778.61 1184.51C1782.2 1190.94 1788.09 1195.79 1795.09 1198.08C1802.1 1200.36 1809.71 1199.92 1816.4 1196.84L1962.74 1130.02C1969.45 1126.98 1974.77 1121.52 1977.63 1114.73C1980.49 1107.94 1980.69 1100.32 1978.17 1093.39L1881.83 830.624C1881.12 828.719 1880.03 826.983 1878.61 825.524C1877.2 824.066 1875.5 822.918 1873.62 822.153Z" fill="#EEF5FD"/>
<path d="M1873.62 822.153C1871.77 821.382 1869.78 821 1867.77 821.03C1865.77 821.061 1863.79 821.503 1861.96 822.33L1854.78 825.61L1948.7 1082.73C1951.22 1089.65 1951.03 1097.27 1948.17 1104.07C1945.31 1110.86 1939.99 1116.32 1933.27 1119.36L1786.93 1186.18C1784.96 1187.08 1782.86 1187.72 1780.71 1188.05C1784.75 1193.35 1790.47 1197.12 1796.93 1198.73C1803.4 1200.34 1810.22 1199.69 1816.27 1196.9L1962.61 1130.08C1969.32 1127.04 1974.64 1121.58 1977.5 1114.79C1980.36 1108 1980.55 1100.38 1978.04 1093.45L1881.83 830.624C1881.12 828.719 1880.03 826.983 1878.61 825.524C1877.2 824.066 1875.5 822.918 1873.62 822.153Z" fill="#D7E2F2"/>
<path d="M1763.23 1156.8L1966.51 1063.99L1896.37 870.929L1663.29 977.354L1763.23 1156.8Z" fill="#FFD599"/>
<path d="M1874.82 880.769L1944.96 1073.83L1966.51 1063.99L1914.81 921.515L1896.37 870.929L1874.82 880.769Z" fill="#E4AB7B"/>
<path d="M1864.27 756.966L1598.2 878.456C1590.85 881.811 1587.61 890.487 1590.97 897.834L1615.26 951.05C1618.62 958.397 1627.29 961.634 1634.64 958.279L1900.72 836.789C1908.07 833.434 1911.3 824.758 1907.95 817.411L1883.65 764.195C1880.29 756.848 1871.62 753.611 1864.27 756.966Z" fill="#96D7FF"/>
<path d="M1864.27 756.966L1598.2 878.456C1594.67 880.067 1591.92 883.014 1590.57 886.648C1589.21 890.282 1589.36 894.306 1590.97 897.834L1854.25 777.62C1857.78 776.009 1861.8 775.866 1865.43 777.221C1869.07 778.577 1872.02 781.321 1873.63 784.849L1897.92 838.064L1900.72 836.789C1904.25 835.178 1906.99 832.231 1908.35 828.597C1909.7 824.963 1909.56 820.939 1907.95 817.411L1883.65 764.195C1882.04 760.667 1879.09 757.923 1875.46 756.567C1871.82 755.212 1867.8 755.355 1864.27 756.966Z" fill="#86C3EF"/>
<path d="M1821.82 960.115C1807.43 962.309 1794.49 970.105 1785.82 981.802C1777.16 993.499 1773.47 1008.15 1775.57 1022.55C1775.6 1029.84 1777.08 1037.04 1779.92 1043.75C1782.75 1050.46 1786.89 1056.54 1792.09 1061.64C1797.29 1066.74 1803.45 1070.76 1810.21 1073.46C1816.97 1076.17 1824.2 1077.51 1831.48 1077.41C1836.74 1076.93 1841.88 1075.56 1846.68 1073.36C1857.13 1067.92 1865.69 1059.44 1871.24 1049.05C1876.8 1038.65 1879.08 1026.82 1877.79 1015.1C1877.78 1007.8 1876.31 1000.58 1873.48 993.854C1870.64 987.126 1866.5 981.028 1861.3 975.912C1856.09 970.797 1849.92 966.766 1843.14 964.055C1836.36 961.343 1829.12 960.004 1821.82 960.115Z" fill="#E4AB7B"/>
<path d="M1817.74 958.924C1803.34 961.109 1790.39 968.884 1781.7 980.56C1773 992.237 1769.26 1006.87 1771.29 1021.29C1771.44 1035.97 1777.42 1050 1787.9 1060.29C1798.38 1070.57 1812.52 1076.27 1827.21 1076.14C1832.49 1075.77 1837.66 1074.45 1842.46 1072.23C1852.96 1066.79 1861.56 1058.28 1867.13 1047.85C1872.7 1037.41 1874.97 1025.53 1873.65 1013.78C1873.5 999.094 1867.53 985.068 1857.04 974.783C1846.56 964.498 1832.42 958.794 1817.74 958.924Z" fill="#D6B5B0"/>
<path d="M1823.95 959.143C1834.12 963.452 1842.86 970.553 1849.17 979.624C1855.47 988.696 1859.08 999.366 1859.57 1010.4C1860.89 1022.16 1858.62 1034.03 1853.05 1044.47C1847.48 1054.91 1838.88 1063.41 1828.38 1068.86C1823.58 1071.04 1818.44 1072.41 1813.19 1072.9C1811.15 1073.02 1809.07 1072.69 1806.98 1072.68C1812.62 1074.86 1818.65 1075.9 1824.7 1075.73C1830.75 1075.56 1836.71 1074.19 1842.22 1071.7C1852.72 1066.25 1861.32 1057.75 1866.89 1047.32C1872.46 1036.88 1874.73 1025 1873.41 1013.25C1872.98 999.809 1867.76 986.967 1858.69 977.043C1849.62 967.12 1837.29 960.77 1823.95 959.143Z" fill="#BF9E99"/>
</g>
<g clip-path="url(#clip3_13_2)">
<path d="M352.641 358.805L323.933 348.321C321.395 347.395 319.329 345.497 318.19 343.048C317.051 340.598 316.931 337.795 317.858 335.257L352.803 239.563C353.73 237.025 355.627 234.959 358.077 233.82C360.527 232.681 363.329 232.561 365.867 233.488L402.231 246.767C407.886 248.838 413.012 252.136 417.24 256.424C421.468 260.713 424.693 265.885 426.683 271.569C428.673 277.253 429.378 283.308 428.748 289.297C428.118 295.287 426.168 301.062 423.039 306.207L401.406 341.69C396.51 349.74 388.975 355.846 380.084 358.966C371.193 362.087 361.495 362.03 352.641 358.805ZM340.491 332.677L359.63 339.666C364.09 341.392 369.014 341.494 373.542 339.955C378.069 338.417 381.911 335.334 384.395 331.248L406.029 295.766C407.602 293.198 408.587 290.312 408.911 287.318C409.236 284.323 408.893 281.294 407.906 278.448C406.883 275.534 405.212 272.891 403.018 270.719C400.824 268.546 398.165 266.9 395.242 265.906L368.639 256.191L340.491 332.677Z" fill="#BF9E99"/>
<path d="M377.017 226.714L223.906 170.803C221.368 169.876 218.566 169.996 216.116 171.135C213.666 172.274 211.769 174.34 210.842 176.878L182.886 253.433C174.545 276.275 175.62 301.495 185.873 323.544C196.127 345.594 214.719 362.667 237.561 371.008C260.403 379.349 285.622 378.275 307.672 368.022C329.722 357.768 346.795 339.175 355.136 316.334L383.092 239.778C384.019 237.24 383.899 234.438 382.76 231.988C381.621 229.538 379.555 227.641 377.017 226.714Z" fill="#D6B5B0"/>
<path d="M377.017 226.714L376.06 226.365C376.072 227.377 375.924 228.384 375.621 229.35L347.665 305.905C339.324 328.747 322.25 347.34 300.201 357.593C278.151 367.846 252.931 368.921 230.09 360.58C214.876 355.035 201.425 345.516 191.134 333.014C200.187 347.624 213.165 359.395 228.585 366.984C244.006 374.573 261.25 377.675 278.349 375.936C295.448 374.197 311.714 367.687 325.291 357.148C338.868 346.609 349.21 332.467 355.136 316.334L383.092 239.778C384.018 237.24 383.899 234.438 382.76 231.988C381.621 229.538 379.555 227.641 377.017 226.714Z" fill="#BF9E99"/>
<path d="M381.821 412.842C381.211 409.357 379.703 406.091 377.447 403.365C375.19 400.639 372.262 398.548 368.952 397.297L120.626 306.616C117.238 305.325 113.568 304.962 109.993 305.563C106.418 306.164 103.068 307.708 100.289 310.035C97.5732 312.168 95.4669 314.978 94.1822 318.184C92.8974 321.389 92.4795 324.876 92.9706 328.294L95.551 350.928C96.0622 354.765 97.6561 358.378 100.146 361.342C102.636 364.307 105.919 366.501 109.611 367.667L337.555 450.905C341.118 452.285 344.998 452.636 348.752 451.916C352.505 451.196 355.98 449.435 358.78 446.834L375.338 431.19C377.918 428.957 379.872 426.091 381.009 422.874C382.145 419.658 382.426 416.2 381.821 412.842Z" fill="#F4DAB7"/>
<path d="M381.821 412.843C381.255 410.109 380.133 407.521 378.524 405.24C378.188 410.544 375.792 415.507 371.847 419.07L355.289 434.714C352.464 437.34 348.951 439.109 345.16 439.817C341.369 440.526 337.455 440.143 333.872 438.715L105.928 355.477C101.58 353.885 97.9032 350.859 95.5043 346.898L96.0037 350.876C96.4689 354.669 97.9916 358.255 100.398 361.224C102.804 364.193 105.997 366.426 109.611 367.667L337.555 450.905C341.118 452.285 344.998 452.636 348.752 451.916C352.505 451.196 355.98 449.435 358.78 446.834L375.338 431.19C377.918 428.957 379.872 426.091 381.009 422.875C382.145 419.658 382.426 416.2 381.821 412.843Z" fill="#ECC5B4"/>
</g>
</g>
<defs>
<filter id="filter0_d_13_2" x="0" y="0" width="1928" height="1088" filterUnits="userSpaceOnUse" color-interpolation-filters="sRGB">
<feFlood flood-opacity="0" result="BackgroundImageFix"/>
<feColorMatrix in="SourceAlpha" type="matrix" values="0 0 0 0 0 0 0 0 0 0 0 0 0 0 0 0 0 0 127 0" result="hardAlpha"/>
<feOffset dy="4"/>
<feGaussianBlur stdDeviation="2"/>
<feComposite in2="hardAlpha" operator="out"/>
<feColorMatrix type="matrix" values="0 0 0 0 0 0 0 0 0 0 0 0 0 0 0 0 0 0 0.25 0"/>
<feBlend mode="normal" in2="BackgroundImageFix" result="effect1_dropShadow_13_2"/>
<feBlend mode="normal" in="SourceGraphic" in2="effect1_dropShadow_13_2" result="shape"/>
</filter>
<clipPath id="clip0_13_2">
<rect width="1920" height="1080" fill="white" transform="translate(4)"/>
</clipPath>
<clipPath id="clip1_13_2">
<rect width="210.829" height="210.829" fill="white" transform="translate(1814.09 804.44) rotate(171.365)"/>
</clipPath>
<clipPath id="clip2_13_2">
<rect width="468" height="468" fill="white" transform="translate(1488 848.384) rotate(-24.5414)"/>
</clipPath>
<clipPath id="clip3_13_2">
<rect width="326" height="326" fill="white" transform="translate(164.823 95) rotate(20.0607)"/>
</clipPath>
</defs>
</svg>
