<svg width="64" height="64" viewBox="0 0 64 64" fill="none" xmlns="http://www.w3.org/2000/svg">
<path d="M48 54H43C42.7348 54 42.4804 53.8946 42.2929 53.7071C42.1054 53.5196 42 53.2652 42 53C42 52.7348 42.1054 52.4804 42.2929 52.2929C42.4804 52.1054 42.7348 52 43 52H48C50.121 51.9976 52.1544 51.154 53.6542 49.6542C55.154 48.1544 55.9976 46.121 56 44V30C55.9976 27.879 55.154 25.8456 53.6542 24.3458C52.1544 22.846 50.121 22.0024 48 22H43C42.7348 22 42.4804 21.8946 42.2929 21.7071C42.1054 21.5196 42 21.2652 42 21C42 20.7348 42.1054 20.4804 42.2929 20.2929C42.4804 20.1054 42.7348 20 43 20H48C50.6513 20.0029 53.1931 21.0574 55.0679 22.9321C56.9426 24.8069 57.9971 27.3487 58 30V44C57.9971 46.6513 56.9426 49.1931 55.0679 51.0679C53.1931 52.9426 50.6513 53.9971 48 54Z" fill="#63554E"/>
<path d="M48 48H43C42.7348 48 42.4804 47.8946 42.2929 47.7071C42.1054 47.5196 42 47.2652 42 47C42 46.7348 42.1054 46.4804 42.2929 46.2929C42.4804 46.1054 42.7348 46 43 46H48C48.5304 46 49.0391 45.7893 49.4142 45.4142C49.7893 45.0391 50 44.5304 50 44V30C50 29.4696 49.7893 28.9609 49.4142 28.5858C49.0391 28.2107 48.5304 28 48 28H43C42.7348 28 42.4804 27.8946 42.2929 27.7071C42.1054 27.5196 42 27.2652 42 27C42 26.7348 42.1054 26.4804 42.2929 26.2929C42.4804 26.1054 42.7348 26 43 26H48C49.0609 26 50.0783 26.4214 50.8284 27.1716C51.5786 27.9217 52 28.9391 52 30V44C52 45.0609 51.5786 46.0783 50.8284 46.8284C50.0783 47.5786 49.0609 48 48 48Z" fill="#63554E"/>
<path d="M41 58H9C8.20435 58 7.44129 57.6839 6.87868 57.1213C6.31607 56.5587 6 55.7956 6 55V19C6 18.2044 6.31607 17.4413 6.87868 16.8787C7.44129 16.3161 8.20435 16 9 16H41C41.7956 16 42.5587 16.3161 43.1213 16.8787C43.6839 17.4413 44 18.2044 44 19V55C44 55.7956 43.6839 56.5587 43.1213 57.1213C42.5587 57.6839 41.7956 58 41 58ZM9 18C8.73478 18 8.48043 18.1054 8.29289 18.2929C8.10536 18.4804 8 18.7348 8 19V55C8 55.2652 8.10536 55.5196 8.29289 55.7071C8.48043 55.8946 8.73478 56 9 56H41C41.2652 56 41.5196 55.8946 41.7071 55.7071C41.8946 55.5196 42 55.2652 42 55V19C42 18.7348 41.8946 18.4804 41.7071 18.2929C41.5196 18.1054 41.2652 18 41 18H9Z" fill="#63554E"/>
</svg>
